<svg width="87" height="88" viewBox="0 0 87 88" fill="none" xmlns="http://www.w3.org/2000/svg">
<path d="M76.48 0H10C4.47715 0 0 4.47715 0 10V77.92C0 83.4428 4.47715 87.92 10 87.92H76.48C82.0029 87.92 86.48 83.4428 86.48 77.92V10C86.48 4.47715 82.0029 0 76.48 0Z" fill="#E44C4E"/>
<path d="M63.904 54.28C63.904 58.216 62.464 61.6 59.584 64.432C56.704 67.216 52.552 68.944 47.128 69.616V77.68H39.928V69.832C36.376 69.64 32.992 69.016 29.776 67.96C26.56 66.904 23.968 65.608 22 64.072L25.96 55.288C27.784 56.632 29.92 57.76 32.368 58.672C34.816 59.584 37.336 60.16 39.928 60.4V48.376C36.52 47.56 33.64 46.648 31.288 45.64C28.936 44.632 26.968 43.168 25.384 41.248C23.8 39.28 23.008 36.688 23.008 33.472C23.008 29.488 24.448 26.08 27.328 23.248C30.256 20.368 34.456 18.616 39.928 17.992V10H47.128V17.848C53.032 18.328 57.904 19.792 61.744 22.24L58.144 31.096C54.544 29.032 50.872 27.784 47.128 27.352V39.592C50.488 40.36 53.32 41.248 55.624 42.256C57.976 43.216 59.944 44.68 61.528 46.648C63.112 48.568 63.904 51.112 63.904 54.28ZM34.6 32.896C34.6 34.096 35.056 35.08 35.968 35.848C36.88 36.616 38.2 37.264 39.928 37.792V27.568C38.104 28 36.76 28.696 35.896 29.656C35.032 30.568 34.6 31.648 34.6 32.896ZM47.128 60.112C48.856 59.728 50.152 59.104 51.016 58.24C51.88 57.376 52.312 56.344 52.312 55.144C52.312 53.944 51.856 52.96 50.944 52.192C50.08 51.424 48.808 50.752 47.128 50.176V60.112Z" fill="white"/>
</svg>
