<svg width="87" height="88" viewBox="0 0 87 88" fill="none" xmlns="http://www.w3.org/2000/svg">
<path d="M76.48 0H10C4.47715 0 0 4.47715 0 10V77.92C0 83.4428 4.47715 87.92 10 87.92H76.48C82.0029 87.92 86.48 83.4428 86.48 77.92V10C86.48 4.47715 82.0029 0 76.48 0Z" fill="#E44C4E"/>
<path d="M53.4842 57.5211C53.4842 55.2614 52.686 53.3579 51.0895 51.8105C49.5175 50.2632 46.8526 48.8632 43.0947 47.6105C37.8632 46.014 34.0439 43.9386 31.6368 41.3842C29.2544 38.8053 28.0632 35.5386 28.0632 31.5842C28.0632 27.5561 29.2298 24.2526 31.5632 21.6737C33.9211 19.0947 37.1509 17.5596 41.2526 17.0684V9H46.7421V17.1053C50.8684 17.6702 54.0737 19.4018 56.3579 22.3C58.6667 25.1982 59.8211 29.1649 59.8211 34.2H53.0421C53.0421 30.7368 52.2193 27.986 50.5737 25.9474C48.9281 23.9088 46.7053 22.8895 43.9053 22.8895C40.9825 22.8895 38.7474 23.6509 37.2 25.1737C35.6526 26.6719 34.8789 28.7719 34.8789 31.4737C34.8789 33.9789 35.6895 35.9807 37.3105 37.4789C38.9561 38.9526 41.6456 40.3035 45.3789 41.5316C49.1368 42.7351 52.0596 44.0737 54.1474 45.5474C56.2596 46.9965 57.807 48.6912 58.7895 50.6316C59.7965 52.5719 60.3 54.8439 60.3 57.4474C60.3 61.5982 59.0474 64.9386 56.5421 67.4684C54.0614 69.9982 50.5737 71.4965 46.0789 71.9632V79H40.6263V71.9632C36.0579 71.5456 32.4719 69.9246 29.8684 67.1C27.2895 64.2509 26 60.3947 26 55.5316H32.8158C32.8158 58.9456 33.7123 61.5737 35.5053 63.4158C37.2982 65.2579 39.8404 66.1789 43.1316 66.1789C46.3491 66.1789 48.8789 65.4053 50.7211 63.8579C52.5632 62.3105 53.4842 60.1982 53.4842 57.5211Z" fill="white"/>
</svg>